# xmcd
#
# Track frame offsets:
#	150
#	24865
#	60996
#	74315
#	78432
#	93387
#	109127
#	126888
#	144078
#	164453
#
# Disc length: 2377 seconds
#
# Revision: 0
# Processed by: cddbd v1.5.2PL0 Copyright (c) Steve Scherf et al.
# Submitted via: dBpowerAMP V4.0
#
DISCID=7809470a
DTITLE=The Black Diamond Heavies - Every Damn Time
DYEAR=1900
DGENRE=Blues
TTITLE0=Fever in my Blood
TTITLE1=All to Hell
TTITLE2=Leave it in the Road
TTITLE3=Let Me Coco
TTITLE4=Poor Brown Sugar
TTITLE5=Stiched in Sin
TTITLE6=White Bitch
TTITLE7=Signs
TTITLE8=Might be Right
TTITLE9=Guess You Gone and Fucked it all Up
EXTD=
EXTT0=
EXTT1=
EXTT2=
EXTT3=
EXTT4=
EXTT5=
EXTT6=
EXTT7=
EXTT8=
EXTT9=
PLAYORDER=
